<svg xmlns="http://www.w3.org/2000/svg" width="92" height="40" viewBox="0 0 92 40"><path d="M91 28.157h-3.396l-.098-.779c-.663.904-1.537.808-2.391.806-2.629-.006-5.256-.002-7.883-.004-.201 0-.404-.003-.605-.02-.893-.076-1.533-.737-1.544-1.631-.019-1.234-.022-2.471-.005-3.704.018-1.126.786-1.869 1.896-1.87 2.676-.002 5.35.018 8.022-.01.937-.012 1.808.055 2.442.89.455-1.478-.303-2.583-1.59-2.579-3.359.008-6.718.002-10.076.002h-.582v-2.755h.565c3.748 0 7.495-.001 11.242 0 2.101.001 3.998 1.909 3.999 4.017.005 2.362.004 4.724.004 7.084v.553zm-8.396-2.764c1.103 0 2.203.002 3.306-.002.526-.002.933-.312.987-.738.047-.37-.254-.74-.744-.894-.116-.036-.242-.054-.365-.055-2.157-.003-4.314-.007-6.473.001-.584.002-.92.352-.91.889.011.51.341.793.938.797 1.087.004 2.173.002 3.261.002zm-37.852 2.744h-3.25l-.027-.541c-.001-2.128-.002-4.255 0-6.382.001-.321.014-.661-.372-.768-.393-.11-.582.152-.752.466-1.237 2.277-2.49 4.546-3.72 6.828-.171.318-.361.441-.725.427-.745-.03-1.493-.019-2.239-.003-.279.006-.452-.072-.594-.33-1.319-2.375-2.642-4.748-3.993-7.104-.122-.213-.326-.538-.667-.466-.382.129-.333.462-.335.696-.026 2.188-.016 4.379-.016 6.569v.592h-3.242v-.53c0-2.705.035-5.411-.013-8.117-.028-1.593 1.062-2.612 2.256-3.043 1.167-.419 2.476-.095 3.279 1.029.857 1.2 1.577 2.503 2.323 3.782.629 1.078 1.21 2.186 1.816 3.277l.258.399.27-.418c1.109-1.955 2.209-3.916 3.332-5.864.263-.458.574-.895.915-1.297.849-1.004 2.184-1.343 3.385-.898 1.284.476 2.107 1.631 2.108 2.969.003 2.737.001 5.475.001 8.211l.002.516zm28.978-11.633c0 .867.006 1.676-.01 2.484-.002.078-.133.188-.226.22-.112.04-.245.014-.37.014h-9.143c-.68 0-.989.258-.991.819-.001.521.42.909 1.032.911l8.068.007c.279.001.562.018.832.077.801.18 1.352.741 1.383 1.558.051 1.357.055 2.721.006 4.079-.03.888-.668 1.438-1.549 1.495l-.514.014c-4.121.002-8.24 0-12.359 0h-.582v-2.814h10.44l.373-.002c.505-.028.87-.332.926-.764.057-.432-.213-.824-.707-.967-.204-.06-.428-.072-.643-.072-2.627-.006-5.256-.002-7.883-.004-1.314 0-2.125-.812-2.125-2.119l.002-3.047c0-.937.707-1.742 1.633-1.862.139-.018.279-.022.418-.022 3.824-.001 7.648-.001 11.474-.001l.515-.004zm-24.889 7.142v4.492h-3.245v-.539c0-2.519.075-5.039-.023-7.552-.075-1.889 1.912-3.524 3.289-3.531 3.188-.018 6.375-.007 9.562-.006l.202.044v2.617h-.571c-2.582 0-5.164 0-7.744.001-1.125 0-1.629.623-1.406 1.817h9.539v2.656c-3.185.001-6.361.001-9.603.001zm10.347 6.615l.123 2.156.117.028c.188-.596.403-1.186.559-1.791.119-.471.373-.551.826-.396-.131.989-.256 1.979-.412 2.963-.017.102-.213.174-.328.262l-.106-.105.315-2.188-.092-.019c-.291.753-.584 1.506-.888 2.255l-.247-.017-.139-2.317-.116-.009c-.084.671-.174 1.34-.251 2.011-.029.262-.104.424-.469.291.119-.884.232-1.775.359-2.664.082-.592.103-.599.749-.46zm-5.301 5.903c-.266-.15-.432-.264-.611-.344-.144-.064-.311-.139-.455-.119-.092.014-.237.205-.221.292.023.14.135.327.258.375.553.216.947.522.922 1.188-.021.646-.465 1.116-1.072 1.115-.59-.002-.954-.438-.948-1.154.267-.084.468-.105.622.235.057.125.36.181.551.181.096 0 .276-.205.268-.305-.014-.156-.129-.33-.249-.449-.104-.102-.277-.131-.414-.203-.472-.252-.647-.721-.481-1.278.144-.484.557-.761 1.067-.71.501.05.743.362.763 1.176zm20.486-1.075l.396 3.47h-.521c-.179-.676-.181-.688-.808-.611-.133.017-.316.146-.358.268-.124.354-.328.461-.72.316.416-1.021.847-2.033 1.236-3.061.145-.38.338-.533.775-.382zm-.38.993l-.13-.016-.454 1.24h.675l-.091-1.224zm-6.667 2.45c.064-.489.156-.964.181-1.438.009-.177-.137-.361-.212-.543-.15.146-.384.27-.438.446-.119.399-.159.823-.211 1.241-.039.334-.196.421-.551.289l.266-1.836c.062-.432.144-.86.188-1.295.034-.332.18-.438.543-.309l-.129 1.04c.311-.024.652-.16.863-.047.387.209.265.655.221 1.021-.045.373-.132.738-.169 1.11-.03.325-.16.456-.552.321zm23.061-.037c-.375.062-.726.177-1.066.151-.186-.014-.442-.229-.512-.414-.14-.369-.074-.76.326-.965.188-.097.424-.086.623-.166.139-.057.291-.16.354-.287.039-.073-.078-.328-.135-.33-.146-.008-.299.072-.443.13l-.487.225c.106-.692.416-.931.974-.86.487.06.686.334.613.901-.072.556-.169 1.106-.247 1.615zm-.351-1.104c-.329.151-.771.014-.752.536.003.103.223.294.313.278.405-.07.423-.402.439-.814zm-32.92.981c-.429.541-1.239.354-1.349-.328-.078-.479.017-1.015.153-1.489.119-.412.489-.66.952-.562.438.093.609.441.66.859l.016.325c.033.014-.178.874-.432 1.195zm-.95-.929l.039.011.004.185.281.475c.154-.125.388-.223.441-.381.09-.269.092-.575.072-.863-.008-.119-.167-.32-.256-.319-.134 0-.322.115-.389.236-.106.193-.131.436-.192.656zm5.232-1.339l-.366 2.508-.515-.127c-.271.033-.674.197-.795.074-.188-.187-.248-.568-.246-.867.004-.434.105-.866.178-1.299.062-.359.07-.358.537-.297-.063.486-.148.975-.183 1.467-.01.164.112.34.173.51.156-.137.399-.248.45-.418.12-.399.16-.826.21-1.244.04-.323.177-.451.557-.307zm10.84-2.715l.428-3.171h1.419c.113.597.078.644-.476.649-.601.005-.601.005-.604.677l.391.035.404.026c.079.437-.066.636-.488.571-.362-.055-.508.108-.506.464l-.062.465c-.008.291-.139.395-.506.284zm14.664 4.381c-.088.596-.395.914-.862.902-.449-.01-.79-.342-.791-.917-.001-.421.089-.864.243-1.257.15-.383.503-.607.943-.504.424.1.578.428.594 1.003-.221-.127-.399-.185-.512-.304-.222-.236-.522-.254-.617.056-.107.354-.135.758-.094 1.129.033.296.336.31.563.079.125-.128.289-.218.435-.325l.098.138zm2.483-5.325c.135.298.167.51.277.566.104.055.292-.053.441-.095l.418-.128c-.117.464-.313.717-.711.729-.412.014-.627-.254-.701-.619-.107-.52-.067-1.045.262-1.473.141-.181.441-.361.643-.335.199.027.396.292.533.493.088.127.077.328.094.498.025.248-.074.38-.344.366-.257-.011-.515-.002-.912-.002zm.769-.388l.123-.148c-.123-.126-.289-.381-.359-.356-.168.058-.293.247-.436.384l.095.123.577-.003zm-19.53 1.05c-.129.197-.451.397-.665.375-.209-.021-.536-.306-.557-.502-.047-.463.011-.953.117-1.407.078-.33.363-.562.746-.507.403.058.545.373.602.735l.003.328c.025.008-.069.706-.246.978zm-.181-.828c0-.172.029-.278-.006-.357-.057-.129-.152-.24-.23-.359-.124.097-.26.181-.364.293-.057.062-.079.174-.077.265 0 .317-.209.806.254.856.464.05.375-.459.423-.698zm7.772 2.832l-.133.252c-.35.022-.439.177-.495.531.298.233.603.463-.011.662-.061.021-.09.188-.105.289-.074.461-.148.922-.203 1.387-.039.326-.188.434-.551.302.07-.493.159-.994.201-1.499.016-.186-.098-.377-.124-.568-.019-.126-.017-.273.034-.385.088-.191.258-.348.331-.541.159-.423.427-.585 1.056-.43zm5.978-1.595c.068-.58.142-1.021.162-1.467.008-.154-.114-.314-.176-.473-.136.125-.348.229-.389.378-.105.389-.117.8-.204 1.194-.026.125-.17.227-.26.338l-.173-.086c.092-.701.18-1.404.283-2.104.01-.065.148-.179.172-.166.281.157.521.019.791-.042.106-.023.404.254.399.389-.016.603-.099 1.205-.19 1.803-.008.074-.204.12-.415.236zm-3.739-1.679c.147-.655.411-.851.87-.771.473.082.531.416.482.809l-.203 1.482c-.32.06-.606.158-.888.144-.155-.007-.38-.173-.437-.321-.125-.332-.102-.695.24-.914.149-.096.359-.086.523-.166.139-.065.273-.173.355-.3.033-.048-.088-.282-.14-.284-.132 0-.265.08-.396.133l-.406.188zm.933.712l-.162-.148c-.248.06-.574.021-.562.428.003.1.175.195.27.293l.454-.573zm-17.199 2.728c.1.326-.278.755.338.824-.053.146-.067.281-.142.364-.089.103-.308.142-.331.241-.088.377-.123.768-.168 1.152-.005.047.055.139.094.146.31.054.293.274.18.444-.069.104-.303.189-.415.15-.16-.056-.371-.221-.394-.365-.041-.268.061-.553.062-.832.003-.336.311-.719-.127-.998.207-.383.408-.77.63-1.144.023-.03.17.012.273.018zm14.06-1.765c.075-.609.148-1.056.172-1.506.008-.139-.117-.283-.182-.427-.127.11-.33.2-.366.334-.104.39-.122.801-.211 1.194-.033.142-.175.257-.267.383l-.185-.084c.099-.717.194-1.434.304-2.15.008-.052.131-.14.155-.127.297.166.562-.031.835-.044.12-.005.362.259.357.394-.021.605-.102 1.209-.191 1.808-.01.074-.213.117-.421.225zm-12.704-1.532c-.177-.114-.31-.172-.403-.267-.229-.231-.469-.217-.556.097-.08.293-.075.611-.069.92 0 .092.118.235.207.258.088.021.211-.071.309-.133l.443-.334c-.074.707-.338 1.017-.742 1-.394-.015-.683-.336-.664-.857.016-.393.098-.8.234-1.169.121-.324.418-.521.79-.409.361.109.488.394.451.894zm22.22-.056c-.171-.048-.293-.068-.4-.119l-.096-.148c-.149-.01-.349-.049-.438.029-.256.219-.272 1.135-.03 1.254.098.047.283-.055.415-.116.125-.06.234-.156.416-.284-.045.645-.296.964-.674.982-.381.018-.692-.252-.712-.762-.014-.404.074-.828.199-1.22.104-.329.39-.542.764-.467.397.081.509.4.556.851zm-7.302 4.301l.586-.348-.067.727c-.588-.021-.76.336-.815.819-.042.368-.114.734-.177 1.132h-.496c.111-.777.216-1.527.336-2.275.014-.084.121-.221.174-.217.136.007.265.085.459.162zm-13.599-2.866c.086-.631.162-1.264.257-1.896.062-.417.185-.45.519-.165l.489-.283c.034.368.078.62-.342.69-.132.021-.272.28-.32.458-.086.312-.083.65-.161.967-.035.133-.182.237-.277.354l-.165-.125zm15.679 5.312c.132-.892.229-1.646.369-2.392.022-.114.241-.191.368-.286l.141.104c-.111.779-.214 1.562-.357 2.336-.017.088-.273.129-.521.238zm-7.356-5.131c.106-.826.181-1.489.289-2.146.02-.121.183-.215.28-.324l.164.092c-.096.702-.183 1.404-.303 2.102-.014.086-.214.14-.43.276zm-13.19-.171c.091-.674.173-1.348.285-2.018.019-.107.177-.191.271-.287l.151.088c-.09.701-.171 1.4-.284 2.098-.015.09-.194.152-.3.229l-.123-.11zm21.042 2.204c-.042-.386.011-.638.485-.501.054.352.032.619-.485.501zm-6.954-5.225l-.346.407-.139-.118c-.008-.241-.044-.503.485-.289zm-13.675.312c-.048-.305-.034-.538.397-.424.01.287.034.555-.397.424zm-32.309-19.23c2.053-.447 4.199-.827 6.419-1.121 11.763-1.56 22.208-.357 27.138 2.695-4.269-4.823-17.745-6.461-32.934-3.567l-.939.188c.154.584.259 1.187.316 1.805zm-20.975 13.045c-.191-1.457.466-2.953 1.809-4.411-.78-.842-1.431-1.806-1.923-2.86-5.486 3.346-8.571 7.134-7.926 10.554 1.273 6.76 16.607 9.512 34.25 6.149 8.21-1.564 15.474-4.177 20.765-7.205-4.617 1.916-10.445 3.459-16.866 4.312-15.878 2.105-29.359-.823-30.109-6.539zm9.931-23.162c-6.127 0-11.094 4.995-11.094 11.155 0 6.161 4.967 11.156 11.094 11.156 1.855 0 3.604-.458 5.141-1.269-.004-.967-.014-1.938-.031-2.899-.034-1.981 1.361-3.196 2.685-3.674.396-.143.803-.214 1.214-.214.544 0 1.067.129 1.538.37.354-1.091.547-2.257.547-3.469 0-6.161-4.967-11.156-11.094-11.156zm9.573 11.598s-.964 1.282-1.151 1.407c-.186.125-.84.188-1.026.282-.186.094-.84.626-1.431.72-.592.094-.529.375-.653.626-.125.25-.436.312-.529.688-.093.376-.872 1.314-1.151 1.532-.28.22-.654.125-1.307.032-.653-.094-1.151.375-1.493.782-.342.406-.995.375-1.182.343-.187-.031-.373.376-.622.345-.249-.032-.404-.032-.964.156-.56.188-2.053-.156-2.208-.344-.156-.188-.436-.375-.84-.407-.404-.03-.28-.531-.217-.719.062-.188.28-.563.124-.799-.156-.237-.186-.545.063-1.047.249-.501.342-1.657.467-2.407.125-.751.902-1.283 1.491-1.631.59-.348.749-.777.966-1.497.218-.72.187-1.815.094-2.159-.094-.344-.187-.719 0-.81.187-.091.373.091.56-.128.187-.218.343-.438.591-.719.249-.281-.062-.657-.373-.844-.312-.188-.467-.313-.467-.595 0-.281 0-.438-.342-.751s-.84-.375-1.182-.406c-.342-.031-.684-.093-1.026-.438-.342-.344-.374-.407-.684-.407-.095 0-.191-.054-.278-.128 1.525-.906 3.303-1.427 5.2-1.427 3.611 0 6.792 1.886 8.619 4.732.047.618.063 1.214.021 1.454-.093.532-.125.657.062 1.47s.062 1.783.03 2.154l.84.317c.247.091-.002.623-.002.623z" fill="#3B3B3B"/></svg>