<svg xmlns="http://www.w3.org/2000/svg" width="68" height="40" viewBox="0 0 68 40"><path d="M8.578 8.788l-.007.143c0 5.142-.001 10.285.001 15.426 0 .661.018 1.321.16 1.971.204.93.721 1.634 1.489 2.162l.249.164.111.144-.029.031h-7.273c-.039-.092.003-.135.071-.176.568-.348 1.058-.779 1.395-1.371.322-.566.454-1.189.5-1.833.026-.362.042-.726.043-1.09.002-5.527.002-11.055 0-16.582 0-.636-.021-1.27-.139-1.898-.194-1.015-.739-1.78-1.587-2.333l-.187-.121-.073-.125.114-.041 2.371-.003 3.592-.001c.096 0 .146.021.179.121.156.462.457.839.741 1.222 1.056 1.425 2.114 2.85 3.186 4.263 1.547 2.04 3.102 4.073 4.662 6.103 1.127 1.465 2.256 2.931 3.405 4.377 1.031 1.299 2.105 2.562 3.312 3.697 1.429 1.342 3.04 2.38 4.956 2.856 1.815.451 3.631.447 5.446-.016 1.585-.406 3.068-1.065 4.498-1.86l.365-.208.206-.061-.094.236c-.604 1.4-1.208 2.799-1.817 4.197-.028.064-.09.131-.152.16-1.025.474-2.099.782-3.211.938-2.015.286-4.029.245-6.032-.103-1.47-.255-2.886-.688-4.207-1.412-1.071-.588-2.027-1.332-2.901-2.19-.957-.94-1.807-1.979-2.64-3.031-1.354-1.708-2.688-3.435-4.026-5.157-1.626-2.092-3.247-4.19-4.871-6.285l-1.742-2.246-.064-.068zm39.112-2.791v.562c0 5.762-.001 11.523.002 17.285 0 .602.001 1.206.034 1.806.035.658.148 1.304.439 1.903.253.518.628.904 1.163 1.121.083.034.083.036.081.151h-7.328l.083-.136c.766-.313 1.163-.934 1.384-1.703.172-.602.237-1.223.237-1.846.002-5.498 0-10.996-.004-16.494 0-.736.007-1.473-.024-2.208-.03-.696-.152-1.378-.485-2.003-.245-.462-.598-.804-1.074-1.009-.067-.029-.118-.06-.082-.161l.123-.006c3.087 0 6.173-.01 9.259.004 1.389.006 2.742.245 4.021.825 1.154.523 2.113 1.285 2.782 2.391.515.852.771 1.784.807 2.78.066 1.849-.628 3.391-1.867 4.699-1.154 1.217-2.562 1.993-4.184 2.408l.136.179c1.397 1.766 2.79 3.535 4.194 5.295.638.803 1.267 1.617 1.953 2.376 1.57 1.737 3.335 3.249 5.283 4.536l.098.072-.127.011c-1.275-.002-2.552.011-3.826-.01-1.01-.017-1.977-.229-2.832-.819-.534-.368-.968-.838-1.351-1.362-1.115-1.521-2.238-3.038-3.345-4.566-.705-.973-1.378-1.968-2.075-2.947-.813-1.145-1.637-2.283-2.456-3.424l-.115-.167.56-.1c.993-.19 1.959-.466 2.875-.905.858-.411 1.63-.941 2.228-1.704.607-.775.909-1.665.945-2.652.033-.916-.165-1.77-.677-2.532-.65-.968-1.573-1.531-2.675-1.815-.624-.161-1.261-.2-1.898-.131-.736.08-1.468.187-2.202.281l-.06.015zm-43.499 30.654l-.515-.005-.103-.089c-.689-1.158-1.464-2.263-2.059-3.478l-.011-.009v3.573h-.503v-4.337l.569.002.073.055c.613 1.009 1.226 2.018 1.834 3.03.09.147.156.309.217.431l-.04-3.509h.537l.001 4.336zm46.3-.483c-.16.229-.374.373-.639.438-.607.144-1.169-.127-1.45-.697-.312-.638-.205-1.514.25-2.022.427-.477 1.203-.571 1.672-.204l.255.194.02-.339h.487v.284c-.001.802.004 1.606-.009 2.409-.005.266-.037.534-.097.793-.107.468-.414.762-.865.889-.507.145-1.007.112-1.495-.097-.101-.043-.14-.096-.092-.208l.093-.281c.244.069.476.149.714.194.142.027.296.017.44-.007.367-.058.604-.281.685-.647.048-.222.051-.453.074-.682l-.043-.017zm.006-1.121h.008v-.302c-.002-.348-.211-.67-.514-.785-.318-.121-.677-.026-.907.24-.31.357-.374 1.053-.141 1.516.174.347.508.526.874.468.358-.056.623-.325.677-.711.019-.141.003-.285.003-.426zm-8.048-.259v1.857h-.556v-4.283c.649-.082 1.295-.185 1.929.049.443.163.677.501.703.979.028.514-.2.882-.645 1.116l-.138.065c.406.2.537.567.628.961l.278 1.118-.519-.005-.085-.103-.261-1.031-.071-.227c-.113-.296-.323-.473-.636-.495-.2-.013-.403-.001-.627-.001zm.003-.45c.334-.011.66.04.974-.072.344-.122.548-.426.528-.787-.019-.375-.227-.616-.603-.707-.264-.063-.529-.043-.794-.014-.085.009-.108.046-.107.128l.002 1.103v.349zm-6.977-2.251h.573v4.557h-.485l-.027-.453c-.145.126-.282.29-.455.386-.58.323-1.297.114-1.651-.458-.395-.642-.334-1.631.137-2.201.415-.503 1.221-.614 1.704-.231l.205.205-.001-1.805zm.011 2.99h-.02l-.003-.438c-.036-.326-.279-.61-.584-.69-.341-.09-.647-.009-.86.281-.335.452-.35.961-.155 1.473.146.384.469.578.838.548.366-.029.658-.283.746-.676.036-.16.027-.331.038-.498zm-8.069-2.176c-.36-.155-.722-.21-1.097-.165-.764.092-1.284.607-1.389 1.383-.061.448-.039.888.168 1.297.316.629.865.841 1.518.811.275-.012.547-.087.83-.135l.08.337c.023.078-.006.114-.071.128-.273.055-.544.123-.82.155-.345.039-.688-.001-1.021-.118-.591-.209-.99-.617-1.178-1.223-.193-.616-.193-1.24.058-1.84.369-.88 1.073-1.26 1.982-1.293.33-.013.657.026.971.142.085.03.121.065.082.161l-.113.36zm-15.937 2.258c.012-.562.144-1.017.537-1.344.5-.417 1.069-.469 1.644-.212.567.254.793.759.82 1.366.02.428-.053.837-.326 1.18-.413.521-.963.674-1.582.524-.611-.147-.945-.584-1.061-1.2l-.032-.314zm2.435-.082c-.035-.176-.056-.355-.109-.524-.132-.412-.427-.646-.796-.656-.373-.011-.682.195-.833.587-.178.459-.17.917.068 1.354.299.552 1.014.603 1.39.103.189-.254.259-.546.28-.864zm50.871-.012c.003.481-.113.924-.477 1.255-.473.429-1.027.518-1.608.292-.584-.228-.849-.712-.901-1.323-.041-.491.053-.953.383-1.334.396-.457 1.072-.619 1.661-.41.542.192.909.71.942 1.333v.187zm-.579.022l.031-.01c-.054-.212-.088-.433-.167-.635-.12-.301-.342-.502-.673-.539-.333-.038-.606.083-.801.365-.295.43-.306 1.156-.027 1.598.349.555 1.054.563 1.414.018.16-.241.216-.513.223-.797zm-31.515.112h-2.122c-.026.576.329 1.011.896 1.056.333.026.656-.021.976-.149l.087.344-.049.092c-.57.203-1.148.281-1.714.004-.467-.229-.685-.646-.743-1.152-.049-.429.012-.842.218-1.226.333-.618 1.11-.891 1.747-.609.215.094.378.249.497.451.193.326.276.789.207 1.189zm-2.128-.427h1.604l-.01-.168c-.069-.632-.674-.945-1.173-.605-.265.181-.37.457-.421.773zm17.206.425h-2.137c-.053.389.182.883.652 1.011.348.096.692.057 1.034-.04l.178-.06.093.359-.045.07c-.587.211-1.178.284-1.76-.011-.306-.154-.514-.416-.618-.748-.19-.602-.143-1.185.197-1.719.414-.653 1.355-.817 1.93-.341.334.278.444.67.474 1.09l.002.389zm-.544-.424c-.015-.308-.075-.584-.324-.766-.25-.182-.526-.189-.794-.049-.314.168-.43.469-.49.815h1.608zm-39.941 1.877l-.403-.004-.077-.084-.04-.298-.104.117c-.305.319-.853.434-1.257.263-.603-.255-.72-1.126-.214-1.566.273-.238.602-.335.948-.38l.563-.049c.067-.377-.163-.706-.528-.749-.333-.041-.645.038-.952.218l-.132-.379c.25-.171.526-.246.813-.266.194-.014.398-.009.588.033.468.102.76.482.779 1.014.019.488.013.978.016 1.468v.662zm-.564-1.593l-.44.027c-.242.032-.48.081-.669.258-.262.247-.211.742.094.894.386.192.963-.11 1.012-.545.021-.203.003-.409.003-.634zm12.056-.95l-.132-.394c.171-.064.33-.152.499-.182.241-.042.491-.071.734-.055.54.035.88.394.948.961l.02.414.002 1.79h-.466l-.056-.373c-.172.21-.371.349-.617.413-.211.055-.424.062-.633.003-.755-.219-.777-1.122-.395-1.531.274-.294.63-.398 1.005-.453l.577-.049c.092-.439-.229-.788-.708-.759-.134.008-.27.029-.4.064l-.378.151zm1.503.93c-.254.038-.499.065-.737.112-.099.02-.195.069-.28.125-.348.23-.342.782.006.961.376.193.957-.105 1.006-.531.024-.205.005-.416.005-.667zm38.843 1.609h-.483l-.053-.362-.088.082c-.297.313-.665.407-1.073.338-.365-.061-.616-.278-.698-.652-.089-.402.013-.755.338-1.02.235-.189.515-.278.806-.321l.649-.065c.06-.458-.219-.715-.525-.744-.303-.028-.589.024-.858.169l-.065.034-.036.002-.104-.312.039-.097c.5-.253 1.02-.339 1.547-.123.4.165.54.527.577.936l.011.463.016 1.672zm-.58-1.575h-.258c-.252.014-.501.047-.723.18-.21.126-.31.316-.289.565.017.209.111.364.312.439.393.149.906-.153.955-.577.022-.196.003-.398.003-.607zm-3.98 1.58l-.422-.004-.07-.084-.027-.354c-.148.124-.284.276-.452.368-.731.401-1.487.003-1.603-.837-.023-.177-.023-.358-.025-.537l-.001-1.666h.568v.151c.002.578-.001 1.154.009 1.731.002.127.031.258.071.379.12.36.435.52.795.411.343-.103.573-.408.575-.771l.001-1.745v-.165l.513.004.052.101.004.639.022 2.321-.01.058zm-36.771-.007h-.569v-.292l-.007-1.582-.031-.261c-.063-.273-.2-.49-.489-.555-.304-.067-.56.034-.76.274-.132.159-.195.346-.194.555l.001 1.72v.142h-.572v-3.106h.481l.031.433c.144-.121.275-.271.438-.36.75-.412 1.546.009 1.645.867.029.245.024.493.026.74v1.425zm42.292-2.664h-.466v-.45h.466l-.002-.457c-.006-.096.03-.134.115-.157l.441-.135v.742h.795v.452h-.78l-.008.136-.001 1.556c.001.475.18.626.64.554l.098-.013.019.378-.065.081c-.232.065-.469.087-.705.022-.267-.073-.433-.256-.492-.524-.033-.15-.051-.307-.053-.46-.006-.568-.002-1.138-.002-1.725zm-51.825-.444l-.001-.471c-.003-.073.015-.113.092-.133l.46-.146v.741h.792v.442h-.77c0 .648-.016 1.279.007 1.908.01.271.172.372.439.364l.274-.026.02.391-.063.056c-.215.017-.437.062-.645.028-.358-.056-.562-.324-.582-.736-.021-.463-.017-.928-.023-1.391v-.586h-.46v-.442l.46.001zm31.595 2.679l.02.379-.054.065c-.283.076-.569.104-.842-.029-.282-.137-.384-.398-.395-.689-.02-.538-.017-1.078-.024-1.616v-.347h-.459v-.441h.459l-.002-.472c-.001-.073.015-.113.093-.132l.459-.146v.744h.794v.44h-.775l-.015.064c.002.584.003 1.17.011 1.756l.056.242c.06.15.2.222.397.21l.277-.028zm-18.132-4.129h.558v4.565l-.494-.004-.062-.069-.002-.073v-4.419zm33.75 4.554v-4.548h.552v4.548h-.552zm-27.272-3.105h.479l.029.54c.092-.126.173-.262.28-.373.171-.18.391-.253.638-.241.073.004.112.024.109.11l-.001.438-.075.006c-.507-.073-.837.316-.873.771-.025.328-.013.66-.015.989l-.001.865h-.57v-3.105zm37.283.001h.477l.03.573c.219-.447.521-.696 1.01-.636v.54l-.279.002c-.333.042-.596.33-.649.707l-.021.263-.001 1.503v.157h-.567v-3.109zm-27.97 3.108h-.554v-3.103h.554v3.103zm-26.722 0l-.154.008h-.4v-3.115h.555l-.001 3.107zm26.436-3.67c-.209-.002-.354-.158-.354-.381.001-.211.158-.365.371-.363.214.002.363.154.362.372-.002.221-.158.374-.379.372zm-26.714-.001c-.214.001-.367-.148-.372-.364-.006-.213.148-.375.359-.378.217-.003.369.146.371.364.003.217-.148.377-.358.378zm20.782-27.755c-4.724.204-8.241 4.103-8.241 9.167 0 0 .446 4.25 2.446 7.283v.63c-3-3.794-6.573-8.132-6.573-8.132.179-6.778 5.426-12.149 12.645-12.166 0 0 3.928-.042 6.928.999v4.441s-3.388-2.387-7.205-2.222z" fill-rule="evenodd" clip-rule="evenodd" fill="#3B3B3B"/></svg>