<svg xmlns="http://www.w3.org/2000/svg" width="90" height="46" viewBox="0 0 90 46"><g fill="#9D203E"><path d="M36.41 11.582h35.303c2.439 0 4.796.445 7.055 1.374 2.671 1.098 4.955 2.731 6.765 5.002 1.565 1.962 2.578 4.174 2.948 6.672l.146.969v1.781l-.051.186c-.091 1.08-.302 2.135-.608 3.172-.827 2.807-2.262 5.234-4.49 7.152-2.513 2.162-5.49 3.215-8.726 3.572-1.358.15-2.733.188-4.103.189-8.901.016-17.803.01-26.703.01-4.377 0-8.753-.002-13.129.002-.125 0-.263.031-.369.094-.776.443-1.525.939-2.321 1.346-1.798.918-3.711 1.484-5.713 1.744l-1.137.152h-2.611l-.209-.051c-1.073-.08-2.13-.26-3.171-.537-3.696-.982-6.812-2.92-9.324-5.814-2.598-2.994-4.095-6.48-4.488-10.438l-.101-.879v-1.881l.048-.236c.06-1.148.231-2.281.522-3.388 1.254-4.767 3.944-8.501 8.062-11.18 2.326-1.515 4.882-2.424 7.636-2.769 1.871-.234 3.732-.19 5.587.14 2.748.49 5.254 1.562 7.528 3.186l.193.105.457.313 5.004.012zm-4.638 29.262h.238c12.989 0 25.978.002 38.966-.004.952 0 1.904-.029 2.853-.096 1.776-.123 3.506-.488 5.171-1.135 2.236-.867 4.141-2.201 5.636-4.096 1.423-1.803 2.309-3.857 2.817-6.092.401-1.766.495-3.535.115-5.318-.705-3.309-2.465-5.956-5.082-8.034-3.098-2.461-6.674-3.656-10.599-3.667-11.725-.033-23.448-.012-35.173-.011l-.322.015v1.096h-1.276v1.241l-.559.03c3.063 4.045 4.409 8.561 3.87 13.586-.539 5.039-2.856 9.149-6.655 12.485zm-1.46-25.79l-2.521-2.053c-1.064-.614-2.174-1.121-3.35-1.479-2.569-.78-5.171-.902-7.784-.304-4.157.952-7.416 3.241-9.711 6.85-2.206 3.473-2.893 7.275-2.105 11.308.686 3.51 2.412 6.449 5.138 8.756 3.562 3.018 7.688 4.193 12.29 3.529 3.442-.496 6.384-2.055 8.795-4.578 2.607-2.727 4.048-5.996 4.29-9.768.202-3.135-.505-6.074-2.086-8.792-.188-.321-.397-.63-.597-.944l-2.359-2.525zm-.671-.848h1.447v-1.437h-1.447v1.437z"/><path fill-rule="evenodd" clip-rule="evenodd" d="M83.648 13.669c-.001-.867.678-1.564 1.528-1.572.853-.009 1.56.709 1.555 1.576-.005.845-.692 1.53-1.538 1.532-.878.002-1.545-.661-1.545-1.536zm1.51 1.396c.805.003 1.407-.585 1.42-1.388.012-.807-.61-1.442-1.404-1.436-.763.006-1.381.637-1.386 1.413-.004.787.599 1.408 1.37 1.411z"/><path fill-rule="evenodd" clip-rule="evenodd" d="M68.663 25.529l.386-.832c.489.256.98.387 1.511.363.719-.033 1.113-.51 1.001-1.281-.429.486-.948.693-1.569.602-.446-.064-.823-.262-1.118-.611-.568-.673-.565-1.867.01-2.542.346-.405.792-.597 1.318-.62.529-.023.968.18 1.368.589l.03-.498c.337 0 .67-.008 1.002.01.042.003.108.143.108.219.008 1.022.008 2.044.005 3.066 0 .133-.006.266-.028.395-.161.916-.621 1.381-1.586 1.525-.781.115-1.554.039-2.284-.293l-.154-.092zm2.927-3.031c-.005-.557-.423-.957-1.001-.955-.577.001-.993.406-.99.965.004.558.426.962 1.001.958.579-.006.993-.41.99-.968z"/><path fill-rule="evenodd" clip-rule="evenodd" d="M76.99 27.668h1.123v5.479h-1.091l-.031-.477-.114.072c-.714.82-2.073.641-2.647-.344-.48-.82-.464-1.684.01-2.516.544-.957 1.985-1.102 2.628-.357l.123.092-.001-1.949zm.017 3.494l-.001-.197c-.045-.535-.53-.994-1.009-.957-.518.041-.884.416-.964.988-.073.525.214 1.064.658 1.234.67.254 1.318-.271 1.316-1.068z"/><path fill-rule="evenodd" clip-rule="evenodd" d="M64.054 19.999l-.613.88c-.247-.125-.47-.277-.717-.35-.276-.083-.575-.125-.864-.127-.29-.002-.471.179-.505.414-.033.229.079.407.366.513.276.102.562.174.846.26l.54.167c.794.293 1.098.732 1.075 1.538-.019.68-.437 1.184-1.171 1.411-.942.291-2.292-.035-3.012-.748l.655-.784c.225.136.428.272.642.387.38.207.792.266 1.217.215.4-.049.628-.347.494-.653-.045-.102-.146-.211-.248-.251-.334-.132-.682-.232-1.022-.346-.232-.078-.471-.145-.695-.242-.478-.208-.788-.553-.833-1.098-.051-.631.124-1.167.687-1.507.724-.438 1.494-.384 2.256-.126.304.101.582.285.902.447z"/><path fill-rule="evenodd" clip-rule="evenodd" d="M43.685 31.598c.506.4 1.024.674 1.65.635.159-.01.33-.049.47-.123.307-.164.319-.607.009-.762-.312-.154-.658-.242-.991-.355l-.698-.23c-.578-.227-.896-.65-.909-1.281-.011-.607.229-1.088.759-1.402.51-.303 1.07-.301 1.627-.225.516.072.991.268 1.406.635l-.543.787c-.44-.156-.839-.326-1.253-.436-.175-.045-.401-.004-.569.076-.122.057-.226.227-.268.367-.053.182.048.35.225.422.279.113.569.201.856.299.278.096.564.17.836.285.588.248.903.695.888 1.348-.017.672-.319 1.18-.95 1.426-.945.369-1.852.201-2.715-.287-.168-.096-.321-.221-.51-.354l.68-.825z"/><path fill-rule="evenodd" clip-rule="evenodd" d="M44.941 23.17l.584-1.553c.248-.663.497-1.324.737-1.989.052-.147.125-.205.283-.2.333.011.665.003 1.039.003l-.608 1.523c-.483 1.197-.972 2.393-1.449 3.592-.06.15-.127.229-.299.215-.27-.02-.597.074-.794-.051-.182-.115-.231-.451-.329-.693-.572-1.409-1.143-2.819-1.712-4.229l-.125-.353c.412 0 .795-.01 1.177.009.061.002.138.125.169.207.403 1.069.801 2.141 1.2 3.212l.127.307z"/><path fill-rule="evenodd" clip-rule="evenodd" d="M49.198 23.111c.14.861 1.067 1.041 1.976.406l.327.275.306.279c-.525.668-1.466.926-2.354.648-.811-.254-1.358-.953-1.412-1.805-.063-.987.424-1.838 1.236-2.16 1.327-.527 2.639.307 2.732 1.741l.002.614h-1.419l-1.394.002zm1.684-.736c-.009-.514-.371-.867-.861-.855-.469.013-.832.385-.826.855h1.687z"/><path fill-rule="evenodd" clip-rule="evenodd" d="M78.117 24.732h-.984c-.157.002-.161-.098-.161-.215.002-.65.002-1.303 0-1.954 0-.124.001-.25-.023-.369-.071-.361-.346-.575-.702-.563-.36.011-.653.232-.679.589-.039.583-.028 1.168-.043 1.752-.008.244.06.566-.067.707-.11.123-.445.045-.681.053h-.372v-4.032c.344 0 .684-.004 1.024.006.032.001.082.089.089.142l.006.369.182-.145c.443-.471.979-.579 1.573-.375.585.201.814.685.831 1.251.03.916.007 1.831.007 2.784z"/><path fill-rule="evenodd" clip-rule="evenodd" d="M49.805 31.539c.01.721 1.077 1.191 1.945.418l.632.555c-.323.422-.742.629-1.232.725-1.037.207-2.053-.352-2.392-1.32-.401-1.152.195-2.451 1.279-2.777 1.209-.363 2.312.33 2.513 1.586l.052.564c.022.195-.062.256-.254.254-.746-.01-1.492-.004-2.239-.004l-.304-.001zm1.662-.707c-.016-.59-.437-.869-.824-.875-.46-.01-.844.377-.856.875h1.68z"/><path fill-rule="evenodd" clip-rule="evenodd" d="M72.775 31.543h-2.829c.042.354.224.574.497.715.414.211.926.1 1.47-.309l.632.564c-.322.408-.723.643-1.208.715-.735.113-1.404-.023-1.956-.564-.662-.648-.768-1.824-.241-2.701.454-.756 1.419-1.102 2.305-.814.723.232 1.099.777 1.249 1.49.059.277.054.568.081.904zm-2.831-.709h1.676c.017-.484-.342-.865-.812-.877-.457-.014-.841.367-.864.877z"/><path fill-rule="evenodd" clip-rule="evenodd" d="M60.538 29.137v.672c0 .545-.008 1.09.002 1.633.011.617.516.957 1.035.711.312-.148.389-.438.395-.742.013-.643.007-1.285.01-1.93v-.34h1.101v4.01h-1.087l-.028-.516-.178.168c-.43.445-1.011.58-1.581.346-.556-.227-.774-.691-.784-1.258-.015-.865-.004-1.732-.004-2.598l.013-.156h1.106z"/><path fill-rule="evenodd" clip-rule="evenodd" d="M57.734 29.74l-.661.703c-.785-.51-1.269-.531-1.65-.084-.374.438-.366 1.207.015 1.619.405.438.962.41 1.667-.096l.628.637c-.369.604-1.334.898-2.189.674-.811-.211-1.436-.967-1.502-1.766-.105-1.258.621-1.979 1.33-2.244.839-.312 1.865-.078 2.362.557z"/><path fill-rule="evenodd" clip-rule="evenodd" d="M67.463 30.225l-.113.02c-.712.061-1.11.453-1.148 1.172-.026.502-.02 1.006-.01 1.508.004.201-.063.26-.255.25l-.713-.012c-.062-.004-.166-.092-.166-.143-.007-1.27-.003-2.541 0-3.811l.029-.078h1.093v.668l.059.025c.264-.486.621-.812 1.225-.752l-.001 1.153z"/><path fill-rule="evenodd" clip-rule="evenodd" d="M54.511 20.715v.655c.303-.482.679-.78 1.275-.761v1.15l-.226.049c-.629.105-.994.486-1.03 1.13-.029.518-.023 1.039-.019 1.557.002.184-.053.25-.238.24-.293-.014-.587-.004-.896-.004v-4.017l1.134.001z"/><path fill-rule="evenodd" clip-rule="evenodd" d="M57.406 20.711h1.086v4.016c-.336 0-.684.004-1.031-.006-.033-.002-.093-.092-.093-.143-.002-1.27.003-2.539.007-3.809l.031-.058z"/><path fill-rule="evenodd" clip-rule="evenodd" d="M65.786 20.709h1.097v4.002h-1.097v-4.002z"/><path fill-rule="evenodd" clip-rule="evenodd" d="M57.362 19.233h1.185c0 .298.005.584-.006.87-.001.043-.075.117-.116.118-.351.01-.702.005-1.062.005l-.001-.993z"/><path fill-rule="evenodd" clip-rule="evenodd" d="M65.739 19.23h1.187v.992c-.356 0-.706.005-1.055-.006-.046-.002-.124-.088-.127-.138-.013-.276-.005-.554-.005-.848z"/><path fill-rule="evenodd" clip-rule="evenodd" d="M84.835 14.425h-.27v-1.611c.299 0 .598-.016.895.005.222.015.389.149.438.374.052.233-.006.441-.218.584l-.108.092.349.527c-.196.073-.339.076-.468-.117-.109-.16-.159-.45-.447-.365-.26.075-.036.339-.171.511zm.287-.809c.326.001.472-.087.45-.282-.027-.267-.249-.232-.431-.257-.213-.029-.263.076-.261.271.002.193.046.308.242.268z"/></g><path d="M42.478 2.586v-1.584h-1.627v1.579h-1.541v1.59h-2.913v1.583h-1.438v3.061h-1.491v-1.401h-1.485v1.436h1.459v1.459h-2.477v.952h-1.309v1.513h1.447v1.437h-1.447v-1.437h-1.613v.642c-.011.543-.004 1.087-.004 1.668h-1.473v1.474h-.997v1.513c-.31 0-.595.011-.879-.004-.171-.009-.269.055-.35.2-1.053 1.881-2.139 3.745-3.154 5.645-.675 1.262-1.252 2.574-1.873 3.863l-.065.109c-.433-.564-.849-1.127-1.283-1.674-1.176-1.479-2.443-2.868-3.962-4.007-.792-.594-1.635-1.104-2.578-1.42-.219-.073-.47-.123-.694-.094-.736.093-1.116.69-.94 1.415.126.513.422.926.771 1.303 2.499 2.703 4.452 5.759 5.869 9.16.319.768.655 1.529.949 2.305.35.924 1.059 1.346 1.966 1.516.476.09.949.062 1.409-.1.523-.184.888-.525 1.088-1.061 1.283-3.416 2.839-6.699 4.852-9.744.386-.584.591-1.146.516-1.832-.022-.194-.004-.393-.004-.622h1.184v-1.504h1.252v-1.754h1.493v-1.679h1.479l.013-.26v-3.055h1.947l.559-.03v-1.241h1.276v-1.096h.399l-.005-.824h-.377v-1.242h1.46v-1.49h1.665v-1.505h-1.636l.001-1.575h1.402v-1.566h1.561v1.554h1.573v-1.568h-1.559v-1.608h1.584zm-11.376 15.474h-1.445v-1.453h1.445v1.453zm3.834-6.248h-1.456v-1.464h1.456v1.464zm1.441-1.518h-1.388v-1.424h1.388v1.424zm1.531-1.481h-1.478v-1.458h1.478v1.458z"/></svg>