<?xml version="1.0" standalone="no"?>
<!DOCTYPE svg PUBLIC "-//W3C//DTD SVG 1.1//EN" "http://www.w3.org/Graphics/SVG/1.1/DTD/svg11.dtd" >
<svg xmlns="http://www.w3.org/2000/svg">
<metadata>
This is a custom SVG font generated by IcoMoon.
<iconset grid="4"></iconset>
</metadata>
<defs>
<font id="atlas-icons" horiz-adv-x="512" >
<font-face units-per-em="512" ascent="384" descent="-128" />
<missing-glyph horiz-adv-x="512" />
<glyph class="hidden" unicode="&#xf001;" d="M0,384L 512 -128L0 -128 z" horiz-adv-x="0" />
<glyph unicode="&#xf081;" d="M 302.266,238.497l-9.031,49.094L 221,287.591 l-9.031-49.094
		c 13.344,7.829, 28.609,12.641, 45.155,12.641C 273.656,251.138, 288.938,246.326, 302.266,238.497zM 211.031,81.502l 9.031-49.093l 72.235,0 l 9.030,49.093
		c-13.344-7.812-28.609-12.655-45.156-12.655C 239.656,68.847, 224.359,73.689, 211.031,81.502zM 256,384C 132.281,384, 32,283.717, 32,159.997C 32,36.283, 132.281-64, 256-64
		c 123.703,0, 224,100.283, 224,223.997C 480,283.717, 379.703,384, 256,384z M 346.469,141.754c-0.641,0-1.172,0.312-1.78,0.406
		c-3.251-16.469-11.032-31.125-21.766-43.064l-12.86-70.031c-1.593-8.626-9.062-14.875-17.765-14.875l-72.235,0 
		c-8.703,0-16.156,6.249-17.75,14.875l-12.765,70.095c-14.5,16.157-23.657,37.313-23.657,60.838
		c0,24.124, 9.547,45.829, 24.704,62.125L 203.25,290.92c 1.593,8.641, 9.047,14.906, 17.75,14.906l 72.234,0 
		c 8.703,0, 16.172-6.266, 17.767-14.906l 12.952-71.189c 10.188-11.75, 17.609-25.954, 20.735-41.861c 0.608,0.064, 1.14,0.36, 1.78,0.36
		c 9.984,0, 18.062-8.171, 18.062-18.234C 364.531,149.94, 356.453,141.754, 346.469,141.754zM 256.172,232.919c-39.828,0-72.235-32.703-72.235-72.922
		c0-40.182, 32.407-72.9, 72.235-72.9c 39.829,0, 72.234,32.719, 72.234,72.9C 328.406,200.216, 296.001,232.919, 256.172,232.919z
		 M 256.172,223.809c 4.984,0, 9.031-4.078, 9.031-9.124c0-5.048-4.047-9.126-9.031-9.126s-9.031,4.078-9.031,9.126
		C 247.141,219.731, 251.188,223.809, 256.172,223.809z M 202.016,150.91c-5.016,0-9.031,4.071-9.031,9.087
		c0,5.046, 4.015,9.124, 9.031,9.124c 4.984,0, 9.016-4.077, 9.016-9.124C 211.031,154.981, 207,150.91, 202.016,150.91z M 224.25,114.909
		c-3.531-3.594-9.235-3.594-12.75,0c-3.531,3.531-3.531,9.312,0,12.875c 3.515,3.562, 9.219,3.562, 12.75,0
		C 227.781,124.222, 227.781,118.44, 224.25,114.909z M 224.25,192.231c-3.531-3.562-9.235-3.562-12.766,0
		c-3.516,3.547-3.516,9.329, 0.015,12.875c 3.515,3.579, 9.219,3.579, 12.75,0C 227.781,201.56, 227.781,195.778, 224.25,192.231z
		 M 256.172,96.221c-4.984,0-9.031,4.062-9.031,9.094c0,5.063, 4.047,9.127, 9.031,9.127s 9.031-4.063, 9.031-9.127
		C 265.203,100.283, 261.156,96.221, 256.172,96.221z M 262.453,153.434c-1.703-1.649-4.047-2.524-6.313-2.524
		c-2.437,0-4.687,0.938-6.39,2.649c-1.672,1.686-2.609,3.968-2.609,6.374c0,2.485, 0.969,4.782, 2.688,6.532l 46.875,39.062
		c 1.234,0.985, 3.001,0.906, 4.095-0.188c 1.094-1.125, 1.187-2.89, 0.25-4.108l-21.907-27.533L 262.453,153.434z M 300.875,114.909
		c-3.531-3.594-9.249-3.594-12.781,0c-3.531,3.531-3.531,9.312,0,12.875c 3.532,3.562, 9.25,3.562, 12.781,0
		C 304.407,124.222, 304.407,118.44, 300.875,114.909z M 319.392,159.997c0-5.016-4.047-9.087-9.032-9.087
		c-4.984,0-9.031,4.071-9.031,9.087c0,5.046, 4.047,9.124, 9.031,9.124C 315.345,169.121, 319.392,165.043, 319.392,159.997z"  />
<glyph unicode="&#xe010;" d="M 256,384C 132.288,384, 32,283.712, 32,160s 100.288-224, 224-224s 224,100.288, 224,224S 379.712,384, 256,384z M 255-32
	c-106.039,0-192,85.961-192,192S 148.961,352, 255,352c 106.038,0, 192-85.961, 192-192S 361.038-32, 255-32z"  />
<glyph unicode="&#xe011;" d="M 256,384C 132.288,384, 32,283.712, 32,160s 100.288-224, 224-224s 224,100.288, 224,224S 379.712,384, 256,384z M 255-32
		c-106.039,0-192,85.961-192,192S 148.961,352, 255,352c 106.038,0, 192-85.961, 192-192S 361.038-32, 255-32zM 128,160A128,128 180 1 1 384,160A128,128 180 1 1 128,160z"  />
<glyph unicode="&#xf060;" d="M 196.588,265.895l-74.301,0 c-0.363,34.141, 12.086,62.375, 37.434,84.676C 185.054,372.872, 218.425,384, 259.819,384
		c 26.653,0, 49.36-4.614, 68.077-13.827c 18.702-9.228, 33.69-22.518, 44.935-39.901c 11.245-17.381, 16.889-35.648, 16.889-54.801
		c0-10.461-1.799-20.748-5.397-30.847c-3.584-10.112-9.271-20.486-17.004-31.122c-4.57-6.21-15.409-16.671-32.617-31.383
		c-16.453-14.009-26.755-23.904-30.919-29.65c-4.164-5.774-7.661-13.436-10.505-23.011c-2.814-9.576-4.613-22.896-5.383-39.9l-76.84,0 
		l-0.275,11.955c0,23.766, 4.628,45.356, 13.886,64.769c 9.256,19.421, 24.303,37.644, 45.080,54.663
		c 20.051,16.497, 32.137,27.844, 36.302,34.053c 4.164,6.21, 6.238,13.479, 6.238,21.808c0,11.347-5.049,20.966-15.177,28.858
		c-10.112,7.894-23.649,11.84-40.683,11.84c-17.396,0-31.673-4.788-42.802-14.407C 202.451,293.477, 196.778,281.057, 196.588,265.895z
		 M 250.751,59.234c 13.812,0, 25.58-4.441, 35.315-13.32c 9.721-8.85, 14.611-19.588, 14.611-32.182s-4.832-23.359-14.495-32.297
		c-9.634-8.967-21.241-13.436-34.85-13.436c-13.61,0-25.218,4.469-34.75,13.436c-9.547,8.938-14.32,19.703-14.32,32.297
		s 4.729,23.332, 14.175,32.182C 225.897,54.793, 237.316,59.234, 250.751,59.234z"  />
<glyph unicode="&#xf050;" d="M 461.823,25.715c0,25.74-7.671,31.071-25.188,45.001c-17.543,13.928-71.189,55.741-127.062,57.857
		c0,14.894,0,25.072,0,32.037c 30.176,33.396, 36.184,85.039, 34.441,120.076C 340.42,356.008, 267.030,384, 246.458,384
		c-36.722-0.857-59.978-24.509-68.024-45.537c-8.074-21-6.304-37.634-6.304-88.448c0-43.26, 23.364-71.218, 30.284-78.558
		c0-5.223,0-16.848,0-42.885c-55.874-2.116-109.534-43.93-127.049-57.857c-17.516-13.93-25.187-19.261-25.187-45.001
		C 48.003,0.027, 66.605,0, 66.605,0L 255.9,0 l 0.188,0 L 445.38,0 C 445.38,0, 463.996,0.027, 461.823,25.715z"  />
<glyph unicode="&#xf041;" d="M 208.797,247.185L 303.686,247.185L 303.686,163.84L 208.797,163.84zM 208.797,106.784L 303.686,106.784L 303.686,60.346L 208.797,60.346zM 256,384C 132.281,384, 32,283.701, 32,159.996C 32,36.282, 132.281-64, 256-64c 123.703,0, 224,100.282, 224,223.996
		C 480,283.701, 379.703,384, 256,384z M 368,77.283l-51.734,0 l0-23.126 l0-6.125 L 196.234,48.032 l0,29.251 L 144,77.283 L 144,160.37 c0,13.594, 11.25,24.61, 25.124,24.61
		l 27.11,0 l0,74.517 l 120.032,0 l0-74.517 l 26.609,0 c 13.874,0, 25.125-11.016, 25.125-24.61L 368,77.283 z"  />
<glyph unicode="&#xf011;" d="M 213.188,231.325L 248.859,231.325L 248.859,195.654L 213.188,195.654zM 348.719,259.842L 191.812,259.842 c-3.938,0-7.141-3.188-7.141-7.125l0-171.184 c0-3.938-3.188-7.124-7.125-7.124
		s-7.141,3.187-7.141,7.124L 170.405,224.186 l-7.124,0 c-3.938,0-7.141-3.188-7.141-7.125l0-142.651 c0-7.845, 6.407-14.282, 14.265-14.282l 171.171,0 
		c 7.875,0, 14.267,6.438, 14.267,14.282L 355.843,252.717 C 355.844,256.655, 352.656,259.842, 348.719,259.842z M 280.953,231.279L 338,231.279 
		c 1.984,0, 3.577-1.595, 3.577-3.563c0-1.983-1.593-3.578-3.577-3.578l-57.047,0 c-1.984,0-3.562,1.594-3.562,3.578
		C 277.392,229.685, 278.969,231.279, 280.953,231.279z M 280.953,209.888L 338,209.888 c 1.984,0, 3.577-1.594, 3.577-3.578
		c0-1.969-1.593-3.562-3.577-3.562l-57.047,0 c-1.984,0-3.562,1.593-3.562,3.562C 277.392,208.294, 278.969,209.888, 280.953,209.888z
		 M 280.953,188.481L 338,188.481 c 1.984,0, 3.577-1.593, 3.577-3.562s-1.593-3.563-3.577-3.563l-57.047,0 c-1.984,0-3.562,1.594-3.562,3.563
		S 278.969,188.481, 280.953,188.481z M 198.938,238.42c0,3.938, 3.203,7.124, 7.141,7.124L 256,245.544 c 3.938,0, 7.125-3.187, 7.125-7.124l0-49.892 
		c0-3.953-3.188-7.141-7.125-7.141l-49.921,0 c-3.938,0-7.141,3.188-7.141,7.141L 198.938,238.42 z M 259.563,74.378L 202.5,74.378 
		c-1.969,0-3.562,1.593-3.562,3.562s 1.593,3.563, 3.562,3.563l 57.063,0 c 1.969,0, 3.562-1.595, 3.562-3.563
		S 261.532,74.378, 259.563,74.378z M 259.563,95.784L 202.5,95.784 c-1.969,0-3.562,1.595-3.562,3.563s 1.593,3.562, 3.562,3.562l 57.063,0 
		c 1.969,0, 3.562-1.593, 3.562-3.562S 261.532,95.784, 259.563,95.784z M 259.563,117.16L 202.5,117.16 c-1.969,0-3.562,1.593-3.562,3.562
		s 1.593,3.594, 3.562,3.594l 57.063,0 c 1.969,0, 3.562-1.625, 3.562-3.594S 261.532,117.16, 259.563,117.16z M 338.031,74.378l-57.078,0 
		c-1.984,0-3.562,1.593-3.562,3.562s 1.577,3.563, 3.562,3.563l 57.078,0 c 1.953,0, 3.546-1.595, 3.546-3.563
		S 339.984,74.378, 338.031,74.378z M 338.031,95.784l-57.078,0 c-1.984,0-3.562,1.595-3.562,3.563s 1.577,3.562, 3.562,3.562l 57.078,0 
		c 1.953,0, 3.546-1.593, 3.546-3.562S 339.984,95.784, 338.031,95.784z M 338.031,117.16l-57.078,0 c-1.984,0-3.562,1.593-3.562,3.562
		s 1.577,3.594, 3.562,3.594l 57.078,0 c 1.953,0, 3.546-1.625, 3.546-3.594S 339.984,117.16, 338.031,117.16z M 338.031,138.566L 202.5,138.566 
		c-1.969,0-3.562,1.593-3.562,3.562s 1.593,3.563, 3.562,3.563l 135.531,0 c 1.953,0, 3.546-1.594, 3.546-3.563
		S 339.984,138.566, 338.031,138.566z M 338.031,159.965L 202.5,159.965 c-1.969,0-3.562,1.593-3.562,3.562s 1.593,3.563, 3.562,3.563l 135.531,0 
		c 1.953,0, 3.546-1.595, 3.546-3.563S 339.984,159.965, 338.031,159.965zM 256,384C 132.281,384, 32,283.717, 32,159.997C 32,36.283, 132.281-64, 256-64c 123.703,0, 224,100.283, 224,223.997
		C 480,283.717, 379.703,384, 256,384z M 370.124,74.409c0-15.75-12.779-28.532-28.547-28.532L 170.406,45.877 c-15.75,0-28.53,12.782-28.53,28.532
		L 141.876,217.060 c0,11.813, 9.578,21.391, 21.406,21.391l 7.124,0 l0,14.266 c0,11.813, 9.579,21.407, 21.407,21.407l 156.906,0 
		c 11.812,0, 21.405-9.594, 21.405-21.407L 370.124,74.409 z"  />
<glyph unicode="&#xf000;" d="M 254.734,383.996C 152.016,383.324, 62.656,291.995, 64.016,189.088c 0.766-57.181, 29.765-110.336, 73.094-145.743L 256.203-64
		l 120.688,109.002c 42.858,35.906, 71.14,89.312, 71.108,146.633C 447.938,294.636, 357.485,384.653, 254.734,383.996z M 254.773,31.784
		c-83.745,0.637-157.634,74.175-158.76,158.013c-1.142,85.759, 73.336,161.866, 158.928,162.42
		c 85.625,0.555, 161.010-74.462, 161.059-160.305C 416.052,106.295, 340.364,31.146, 254.773,31.784z"  />
<glyph unicode="&#xe090;" d="M 302.184,168.592l-46.156,0 l-0.082,0 l-46.129,0 c-3.609,0-6.535-2.973-6.535-6.589c0-3.643, 2.926-6.616, 6.535-6.616l 46.129,0 l 0.082,0 
		l 46.156,0 c 3.596,0, 6.535,2.973, 6.535,6.616C 308.719,165.619, 305.779,168.592, 302.184,168.592z M 302.184,200.783l-46.156,0 l-0.082,0 
		l-46.129,0 c-3.609,0-6.535-2.974-6.535-6.616c0-3.656, 2.926-6.589, 6.535-6.589l 46.129,0 l 0.082,0 l 46.156,0 c 3.596,0, 6.535,2.933, 6.535,6.589
		C 308.719,197.81, 305.779,200.783, 302.184,200.783z M 478.428,237.092c-35.889-27.657-167.111-128.93-179.566-140.18
		c-14.424-13.071-27.877-20.599-42.779-21.59c-0.027,0-0.055,0-0.055,0l0,0L 256,75.322 c-0.027,0-0.055,0-0.055,0l0,0
		c-0.014,0-0.027,0-0.041,0c-14.916,0.991-28.355,8.519-42.793,21.59c-12.428,11.25-143.678,112.523-179.553,140.18
		C 32.561,233.583, 32,229.873, 32,225.975l0-185.796 c0-7.688, 2.16-14.812, 5.852-20.92l 105.246,103.556
		c 2.297,2.276, 5.961,2.223, 8.176-0.080c 2.242-2.304, 2.174-6-0.096-8.251L 45.262,10.259C 52.303,3.884, 61.586,0, 71.799,0
		l 184.146,0 l 0.082,0 l 184.146,0 c 10.24,0, 19.482,3.884, 26.537,10.259L 360.809,114.483c-2.27,2.251-2.324,5.947-0.109,8.251
		c 2.229,2.303, 5.893,2.356, 8.162,0.080l 105.273-103.556c 3.691,6.107, 5.865,13.232, 5.865,20.92L 480,225.975 
		C 480,229.873, 479.426,233.583, 478.428,237.092z M 302.184,233.489l-46.156,0 l-0.082,0 l-46.129,0 c-3.609,0-6.535-2.933-6.535-6.589
		c0-3.643, 2.926-6.616, 6.535-6.616l 46.129,0 l 0.082,0 l 46.156,0 c 3.596,0, 6.535,2.973, 6.535,6.616
		C 308.719,230.556, 305.779,233.489, 302.184,233.489z M 103.996,240.373c0,0, 1.053,24.281, 29.326,25.339c 50.326,0, 90.508,0, 122.623,0
		c 0.027,0, 0.055,0, 0.082,0c 32.129,0, 72.324,0, 122.623,0c 28.273-1.058, 29.326-25.339, 29.326-25.339L 407.976,207.6 l 58.625,44.398
		c0,0-174.85,117.27-183.23,121.502C 275.223,377.625, 267.074,383.652, 256.027,384l0,0L 256,384 c-0.027,0-0.027,0-0.055,0l0,0
		c-11.061-0.348-19.209-6.375-27.344-10.5c-8.367-4.232-183.217-121.502-183.217-121.502l 58.611-44.398L 103.995,240.373 z"  />
<glyph unicode="&#xe091;" d="M 256,384C 132.281,384, 32,283.702, 32,159.997C 32,36.283, 132.281-64, 256-64c 123.703,0, 224,100.283, 224,223.997
	C 480,283.702, 379.703,384, 256,384z M 243.062,260.592c 3.844,2, 7.688,4.938, 12.906,5.093l0,0.016 c 0.016,0, 0.031,0, 0.031,0s0,0, 0.016,0
	l0-0.016 c 5.203-0.156, 9.062-3.093, 12.922-5.093c 3.952-2.062, 86.5-59.001, 86.5-59.001l-27.688-21.563l0,15.892 
	c0,0-0.483,11.812-13.845,12.328c-23.749,0-42.718,0-57.89,0c-0.016,0-0.016,0-0.047,0c-15.156,0-34.125,0-57.891,0
	c-13.358-0.516-13.859-12.328-13.859-12.328l0-15.892 l-27.672,21.563C 156.546,201.591, 239.093,258.53, 243.062,260.592z
	 M 277.812,170.309l-21.796,0 l-0.047,0 l-21.797,0 c-1.687,0-3.062,1.422-3.062,3.188c0,1.766, 1.375,3.188, 3.062,3.188l 21.797,0 l 0.047,0 l 21.796,0 
	c 1.688,0, 3.080-1.422, 3.080-3.188C 280.892,171.73, 279.5,170.309, 277.812,170.309z M 280.892,157.872c0-1.766-1.392-3.219-3.080-3.219
	l-21.796,0 l-0.047,0 l-21.797,0 c-1.687,0-3.062,1.453-3.062,3.219c0,1.75, 1.375,3.188, 3.062,3.188l 21.797,0 l 0.047,0 l 21.796,0 
	C 279.5,161.059, 280.892,159.622, 280.892,157.872z M 277.812,186.184l-21.796,0 l-0.047,0 l-21.797,0 c-1.687,0-3.062,1.438-3.062,3.188
	c0,1.781, 1.375,3.219, 3.062,3.219l 21.797,0 l 0.047,0 l 21.796,0 c 1.688,0, 3.080-1.438, 3.080-3.219
	C 280.892,187.622, 279.5,186.184, 277.812,186.184z M 361.766,98.691c0-3.719-1.016-7.188-2.766-10.126l-49.688,50.282
	c-1.094,1.094-2.844,1.063-3.874-0.031c-1.048-1.125-1.030-2.937, 0.046-4.031L 355.5,84.19c-3.313-3.125-7.688-5-12.531-5l-86.953,0 
	l-0.047,0 L 169,79.19 c-4.812,0-9.204,1.875-12.516,5l 50.015,50.595c 1.079,1.094, 1.094,2.906, 0.047,4.031
	c-1.046,1.094-2.782,1.125-3.859,0.031l-49.704-50.282c-1.734,2.938-2.766,6.407-2.766,10.126l0,90.243 
	c0,1.891, 0.281,3.703, 0.75,5.407c 16.938-13.439, 78.907-62.619, 84.782-68.087c 6.812-6.344, 13.156-10.001, 20.204-10.5
	c 0.015,0, 0.015,0, 0.015,0l0,0.030 L 256,115.784 c0,0,0,0, 0.016,0l0-0.030 c 7.048,0.499, 13.406,4.156, 20.234,10.5
	c 5.875,5.469, 67.828,54.648, 84.766,68.087c 0.485-1.704, 0.75-3.516, 0.75-5.407L 361.766,98.691 z"  />
<glyph unicode="&#xe081;" d="M 255.219,157.418c-10.594,0-19.203-8.82-19.203-19.695c0-5.594, 2.297-10.625, 5.938-14.188l0-22.218 
		c0-7.656, 6.016-13.813, 13.453-13.813s 13.468,6.157, 13.468,13.813l0,22.562 c 3.438,3.563, 5.531,8.438, 5.531,13.845
		C 274.406,148.598, 265.812,157.418, 255.219,157.418zM 255.984,384C 132.281,384, 32,283.687, 32,159.997C 32,36.283, 132.281-64, 255.984-64C 379.703-64, 480,36.283, 480,159.997
		C 480,283.687, 379.703,384, 255.984,384z M 258.047,294.327c 37.969,0, 69.125-30.64, 72.312-69.688l-27,0 
		c-2.859,23.047-21.781,40.86-44.719,40.86c-22.938,0-41.86-17.813-44.704-40.86L 185.75,224.639 
		C 188.921,263.687, 220.093,294.327, 258.047,294.327z M 355.516,76.534c0-17.157-13.562-31.095-30.297-31.095L 186.75,45.439 
		c-16.734,0-30.313,13.938-30.313,31.095L 156.437,176.559 c0,17.156, 13.579,31.079, 30.313,31.079l 138.469,0 
		c 16.734,0, 30.297-13.922, 30.297-31.079L 355.516,76.534 z"  />
<glyph unicode="&#xe070;" d="M 250.781,178.145l 66.502,0 c 4.592,0, 8.268,3.469, 8.268,7.788c0,4.339-3.676,7.839-8.268,7.839l-66.502,0 
		c-4.57,0-8.247-3.5-8.247-7.839C 242.535,181.613, 246.211,178.145, 250.781,178.145z M 250.781,212.008l 66.502,0 
		c 4.592,0, 8.268,3.479, 8.268,7.819c0,4.309-3.676,7.788-8.268,7.788l-66.502,0 c-4.57,0-8.247-3.479-8.247-7.788
		C 242.535,215.487, 246.211,212.008, 250.781,212.008z M 250.781,146.891l 66.502,0 c 4.592,0, 8.268,3.479, 8.268,7.789
		c0,4.308-3.676,7.807-8.268,7.807l-66.502,0 c-4.57,0-8.247-3.499-8.247-7.807C 242.535,150.37, 246.211,146.891, 250.781,146.891z
		 M 411.574,288.838c-0.488,0.082-0.996,0.131-1.504,0.131c-150.778,0.030, 18.118,0.030-205.337,0C 203.901,289, 203.169,289, 202.52,289
		c-30.124-0.162-45.602-20.4-46.17-21.038c-2.356-3.106-1.646-7.415, 1.646-9.68c 1.28-0.921, 2.783-1.315, 4.286-1.315
		c 2.275,0, 4.488,0.991, 5.91,2.853c0,0, 0.062,0.061, 0.386,0.455c 2.396,2.781, 14.34,14.98, 33.942,14.91c 0.568,0, 1.056,0, 1.441-0.031
		l 0.142-0.030l 0.244,0 c 195.385,0, 91.71,0, 162.093,0c-10.847-9.478-17.692-23.011-17.692-38.082l0-8.062 l 0.062,0 l0-185.335 
		c-0.203-1.395-1.666-9.104-8.451-16.182c-5.91-6.13-15.823-12.381-34.287-14.122c-38.613,1.356-39.061,46.69-39.061,46.69
		s-0.305,0.264-105.035,0.424l0,51.989 c0,3.824-3.27,6.919-7.312,6.919s-7.312-3.095-7.312-6.919l0-51.989 
		c-26.731,0.041-59.373,0.062-99.348,0.062c-0.467-59.736, 43.712-60.89, 43.712-60.89l 195.384-0.021
		c 3.818-0.242, 9.263-0.606, 9.385-0.606c 29.757,0, 47.795,10.053, 56.956,20.998c 9.262,10.964, 9.973,22.898, 9.973,22.898L 363.414,228.98 L 464,228.98 
		l0,8.062 C 464,264.938, 440.722,287.625, 411.574,288.838z M 192.099,188.25l-37.903-35.857l 66.929-26.636L 192.099,188.25z
		 M 71.201,230.923l 75.785-71.713l 37.903,35.876l-75.806,71.712L 71.201,230.923z M 62.162,239.511l 37.903,35.824l-4.368,4.127
		c-10.44,9.912-27.421,9.912-37.882,0c-10.44-9.892-10.44-25.943,0-35.855L 62.162,239.511zM 250.781,178.145l 66.502,0 c 4.592,0, 8.268,3.469, 8.268,7.788c0,4.339-3.676,7.839-8.268,7.839l-66.502,0 
		c-4.57,0-8.247-3.5-8.247-7.839C 242.535,181.613, 246.211,178.145, 250.781,178.145z M 250.781,212.008l 66.502,0 
		c 4.592,0, 8.268,3.479, 8.268,7.819c0,4.309-3.676,7.788-8.268,7.788l-66.502,0 c-4.57,0-8.247-3.479-8.247-7.788
		C 242.535,215.487, 246.211,212.008, 250.781,212.008z M 250.781,146.891l 66.502,0 c 4.592,0, 8.268,3.479, 8.268,7.789
		c0,4.308-3.676,7.807-8.268,7.807l-66.502,0 c-4.57,0-8.247-3.499-8.247-7.807C 242.535,150.37, 246.211,146.891, 250.781,146.891z
		 M 411.574,288.838c-0.488,0.082-0.996,0.131-1.504,0.131c-150.778,0.030, 18.118,0.030-205.337,0C 203.901,289, 203.169,289, 202.52,289
		c-30.124-0.162-45.602-20.4-46.17-21.038c-2.356-3.106-1.646-7.415, 1.646-9.68c 1.28-0.921, 2.783-1.315, 4.286-1.315
		c 2.275,0, 4.488,0.991, 5.91,2.853c0,0, 0.062,0.061, 0.386,0.455c 2.396,2.781, 14.34,14.98, 33.942,14.91c 0.568,0, 1.056,0, 1.441-0.031
		l 0.142-0.030l 0.244,0 c 195.385,0, 91.71,0, 162.093,0c-10.847-9.478-17.692-23.011-17.692-38.082l0-8.062 l 0.062,0 l0-185.335 
		c-0.203-1.395-1.666-9.104-8.451-16.182c-5.91-6.13-15.823-12.381-34.287-14.122c-38.613,1.356-39.061,46.69-39.061,46.69
		s-0.305,0.264-105.035,0.424l0,51.989 c0,3.824-3.27,6.919-7.312,6.919s-7.312-3.095-7.312-6.919l0-51.989 
		c-26.731,0.041-59.373,0.062-99.348,0.062c-0.467-59.736, 43.712-60.89, 43.712-60.89l 195.384-0.021
		c 3.818-0.242, 9.263-0.606, 9.385-0.606c 29.757,0, 47.795,10.053, 56.956,20.998c 9.262,10.964, 9.973,22.898, 9.973,22.898L 363.414,228.98 L 464,228.98 
		l0,8.062 C 464,264.938, 440.722,287.625, 411.574,288.838z M 192.099,188.25l-37.903-35.857l 66.929-26.636L 192.099,188.25z
		 M 71.201,230.923l 75.785-71.713l 37.903,35.876l-75.806,71.712L 71.201,230.923z M 62.162,239.511l 37.903,35.824l-4.368,4.127
		c-10.44,9.912-27.421,9.912-37.882,0c-10.44-9.892-10.44-25.943,0-35.855L 62.162,239.511zM 250.781,178.145l 66.502,0 c 4.592,0, 8.268,3.469, 8.268,7.788c0,4.339-3.676,7.839-8.268,7.839l-66.502,0 
		c-4.57,0-8.247-3.5-8.247-7.839C 242.535,181.613, 246.211,178.145, 250.781,178.145z M 250.781,212.008l 66.502,0 
		c 4.592,0, 8.268,3.479, 8.268,7.819c0,4.309-3.676,7.788-8.268,7.788l-66.502,0 c-4.57,0-8.247-3.479-8.247-7.788
		C 242.535,215.487, 246.211,212.008, 250.781,212.008z M 250.781,146.891l 66.502,0 c 4.592,0, 8.268,3.479, 8.268,7.789
		c0,4.308-3.676,7.807-8.268,7.807l-66.502,0 c-4.57,0-8.247-3.499-8.247-7.807C 242.535,150.37, 246.211,146.891, 250.781,146.891z
		 M 411.574,288.838c-0.488,0.082-0.996,0.131-1.504,0.131c-150.778,0.030, 18.118,0.030-205.337,0C 203.901,289, 203.169,289, 202.52,289
		c-30.124-0.162-45.602-20.4-46.17-21.038c-2.356-3.106-1.646-7.415, 1.646-9.68c 1.28-0.921, 2.783-1.315, 4.286-1.315
		c 2.275,0, 4.488,0.991, 5.91,2.853c0,0, 0.062,0.061, 0.386,0.455c 2.396,2.781, 14.34,14.98, 33.942,14.91c 0.568,0, 1.056,0, 1.441-0.031
		l 0.142-0.030l 0.244,0 c 195.385,0, 91.71,0, 162.093,0c-10.847-9.478-17.692-23.011-17.692-38.082l0-8.062 l 0.062,0 l0-185.335 
		c-0.203-1.395-1.666-9.104-8.451-16.182c-5.91-6.13-15.823-12.381-34.287-14.122c-38.613,1.356-39.061,46.69-39.061,46.69
		s-0.305,0.264-105.035,0.424l0,51.989 c0,3.824-3.27,6.919-7.312,6.919s-7.312-3.095-7.312-6.919l0-51.989 
		c-26.731,0.041-59.373,0.062-99.348,0.062c-0.467-59.736, 43.712-60.89, 43.712-60.89l 195.384-0.021
		c 3.818-0.242, 9.263-0.606, 9.385-0.606c 29.757,0, 47.795,10.053, 56.956,20.998c 9.262,10.964, 9.973,22.898, 9.973,22.898L 363.414,228.98 L 464,228.98 
		l0,8.062 C 464,264.938, 440.722,287.625, 411.574,288.838z M 192.099,188.25l-37.903-35.857l 66.929-26.636L 192.099,188.25z
		 M 71.201,230.923l 75.785-71.713l 37.903,35.876l-75.806,71.712L 71.201,230.923z M 62.162,239.511l 37.903,35.824l-4.368,4.127
		c-10.44,9.912-27.421,9.912-37.882,0c-10.44-9.892-10.44-25.943,0-35.855L 62.162,239.511z"  />
<glyph unicode="&#xe061;" d="M 256,384C 132.281,384, 32,283.702, 32,159.997C 32,36.282, 132.281-64, 256-64c 123.703,0, 224,100.282, 224,223.997
		C 480,283.702, 379.703,384, 256,384z M 361.766,83.909c0-6.063-4.922-10.969-11.001-10.969l-189.53,0 c-6.079,0-11.016,4.905-11.016,10.969
		L 150.219,215.247 l 211.547,0 L 361.766,83.909 z M 361.766,224.717L 150.219,224.717 l0,23.812 c0,6.063, 4.938,10.969, 11.016,10.969l 76.796,0 l 13.047-14.625l 99.687,0 
		c 6.079,0, 11.001-4.922, 11.001-10.985L 361.766,224.717 zM 300.5,134.879L 272.907,134.879L 272.907,201.388L 231.625,201.388L 231.625,134.879L 204.031,134.879L 252.281,86.814 
			z"  />
<glyph unicode="&#xe051;" d="M 165.656,209.247c 3.437-1.625, 7.234-2.625, 11.297-2.625l 124.218,0 l 22.577,0 l0,7.5 L 165.656,214.122 L 165.656,209.247 zM 165.656,244.108L 323.749,244.108L 323.749,236.623L 165.656,236.623zM 233.406,131.628c0,20.712, 16.861,37.493, 37.642,37.493l 67.765,0 l0,15 c0,4.14-3.375,7.5-7.531,7.5l-30.109,0 L 176.954,191.621 
		c-10.017,0-19.172,3.563-26.359,9.454l0-118.166 c0-14.501, 11.796-26.251, 26.359-26.251l 135.5,0 c 14.562,0, 26.359,11.75, 26.359,26.251
		l0,11.219 l-67.765,0 C 250.267,94.128, 233.406,110.941, 233.406,131.628zM 158.125,229.107l0,15 c0,4.156, 3.375,7.515, 7.531,7.515l 158.093,0 c 4.156,0, 7.517-3.359, 7.517-7.515l0-15 l0-14.985 l0-7.5 l 0.016,0 
		c 2.64,0, 5.155-0.531, 7.531-1.375l0,23.86 l0,3.765 l0,18.75 c0,4.125-3.375,7.484-7.531,7.484l-30.109,0 L 176.954,259.106 
		c-14.563,0-26.359-11.75-26.359-26.235c0-7.14, 2.89-13.593, 7.531-18.328L 158.126,229.107 zM 165.656,229.107L 323.749,229.107L 323.749,221.622L 165.656,221.622zM 352.751,163.606c-0.485-1.219-1.094-2.406-1.877-3.438c-2.812-3.735-7.405-5.969-12.062-6.032l-67.765,0 
		c-12.438,0-22.579-10.102-22.579-22.508c0-12.375, 10.141-22.5, 22.579-22.5l 77.374,0 c 8.297,7.782, 12.97,18.469, 12.97,30.001
		c0,9.219-2.985,17.867-8.392,24.945C 352.938,163.903, 352.812,163.778, 352.751,163.606z M 271.048,116.629
		c-8.312,0-15.048,6.718-15.048,15s 6.735,15, 15.048,15s 15.076-6.719, 15.076-15S 279.36,116.629, 271.048,116.629zM 256,384C 132.281,384, 32,283.717, 32,159.997C 32,36.283, 132.281-64, 256-64c 123.703,0, 224,100.283, 224,223.997
		C 480,283.717, 379.703,384, 256,384z M 353.875,94.128l-0.016,0 l0-11.219 c0-22.75-18.562-41.251-41.406-41.251l-135.5,0 
		c-22.845,0-41.407,18.501-41.407,41.251L 135.546,232.873 c0,22.734, 18.562,41.251, 41.407,41.251l 124.218,0 l 30.109,0 
		c 12.469,0, 22.578-10.079, 22.578-22.5l0-18.75 l0-3.765 l0-44.985 l 0.016,0 C 383.969,161.622, 383.969,116.629, 353.875,94.128z"  />
<glyph unicode="&#xe040;" d="M 438.196,320L 73.816,320 C 50.721,320, 32,301.595, 32,278.871l0-237.754 C 32,18.394, 50.721,0, 73.816,0l 364.38,0 
		C 461.303,0, 480,18.394, 480,41.117L 480,278.871 C 480,301.595, 461.303,320, 438.196,320z M 202.718,119.756l 27.965,0 l0-40.29 l-27.965,0 L 202.718,119.756 z
		 M 146.417,119.756l 28.012,0 l0-40.29 l-28.012,0 L 146.417,119.756 z M 90.176,119.756l 27.976,0 l0-40.29 L 90.176,79.466 L 90.176,119.756 z M 245.247,36.005L 92.317,36.005 l0,23.326 
		l 152.929,0 L 245.246,36.005 z M 286.981,79.466L 258.97,79.466 l0,40.29 l 28.012,0 L 286.982,79.466 z M 343.224,79.466l-27.977,0 l0,40.29 l 27.977,0 L 343.224,79.466 z
		 M 363.694,194.953c-19.031,0-34.458,15.189-34.458,33.918c0,18.717, 15.427,33.896, 34.458,33.896s 34.47-15.179, 34.47-33.896
		C 398.164,210.142, 382.726,194.953, 363.694,194.953z M 417.553,194.953c-6.287,0-12.124,1.797-17.189,4.699
		c 6.598,8.002, 10.73,18.093, 10.73,29.219c0,11.128-4.133,21.194-10.73,29.219c 5.065,2.891, 10.88,4.678, 17.189,4.678
		c 19.031,0, 34.458-15.179, 34.458-33.896C 452.011,210.142, 436.584,194.953, 417.553,194.953z"  />
<glyph unicode="&#xe030;" d="M 32.018,156.919C 30.424,276.809, 134.688,383.215, 254.516,383.996C 374.391,384.762, 479.921,279.887, 480,159.872
	c 0.062-119.681-105.891-224.772-225.719-223.866C 137.048-63.119, 33.596,39.724, 32.018,156.919z"  />
<glyph unicode="&#xe000;" d="M 368-64L 80-64 c-44.112,0-80,35.888-80,80L0,304 C0,348.112, 35.888,384, 80,384l 288,0 c 44.11,0, 80-35.888, 80-80l0-288 
	C 448-28.112, 412.113-64, 368-64z M 80,352c-26.467,0-48-21.533-48-48l0-288 c0-26.467, 21.533-48, 48-48l 288,0 c 26.467,0, 48,21.533, 48,48L 416,304 
	c0,26.467-21.533,48-48,48L 80,352 z"  />
<glyph unicode="&#xe001;" d="M 100.759,211.501c0,5.417, 1.917,10.042, 5.75,13.875l 17.376,17.376c 3.833,3.833, 8.458,5.75, 13.875,5.75
		s 9.958-1.917, 13.625-5.75l 99.637-99.637L 459.978,352.571c 3.833,3.833, 8.542,5.708, 14.125,5.625s 10.208-1.958, 13.875-5.625
		l 17.372-17.372c 3.833-3.834, 5.708-8.458, 5.625-13.875c-0.083-5.416-1.958-9.958-5.625-13.625L 282.604,84.954l-17.836-17.836
		c-3.833-3.833-8.459-5.75-13.875-5.75c-5.417,0-10.042,1.917-13.875,5.75l-22.801,22.301L 106.509,197.626
		C 102.676,201.459, 100.759,206.084, 100.759,211.501zM 416,173.095L 416,16 c0-26.467-21.533-48-48-48L 80-32 c-26.467,0-48,21.533-48,48L 32,304 c0,26.467, 21.533,48, 48,48l 288,0 
		c 12.786,0, 24.411-5.035, 33.022-13.215l 22.589,22.643C 409.205,375.384, 389.595,384, 368,384L 80,384 C 35.888,384,0,348.112,0,304l0-288 
		c0-44.112, 35.888-80, 80-80l 288,0 c 44.111,0, 80,35.888, 80,80L 448,205.095 L 416,173.095z"  />
<glyph unicode="&#xe200;" d="M 382.54,138.899c-2.771-7.265-7.764-10.898-14.973-10.898L 144.016,128.001 c-6.932,0-11.784,3.633-14.556,10.898
	c-2.773,7.265-1.595,13.757, 3.535,19.478l 111.463,124.512c 3.745,3.554, 7.625,5.255, 11.646,5.102c 4.021,0, 7.833-1.701, 11.438-5.102
	l 111.464-124.513C 384.135,152.656, 385.314,146.164, 382.54,138.899z"  />
<glyph unicode="&#xe202;" d="M 202.899,65.459c-7.265,2.773-10.897,7.764-10.897,14.973L 192.002,303.984 c0,6.932, 3.634,11.783, 10.897,14.557
	c 7.266,2.772, 13.757,1.594, 19.479-3.535L 346.89,203.543c 3.555-3.745, 5.256-7.626, 5.102-11.646c0-4.021-1.7-7.834-5.102-11.438
	L 222.376,68.994C 216.656,63.865, 210.163,62.688, 202.899,65.459z"  />
<glyph unicode="&#xe203;" d="M 309.103,318.541C 316.367,315.768, 320,310.777, 320,303.568l0-223.553 c0-6.932-3.633-11.783-10.897-14.557
	c-7.265-2.772-13.757-1.594-19.478,3.535L 165.112,180.457c-3.554,3.745-5.255,7.626-5.102,11.646c0,4.021, 1.701,7.834, 5.102,11.438
	L 289.625,315.006C 295.346,320.135, 301.838,321.313, 309.103,318.541z"  />
<glyph unicode="&#xe201;" d="M 129.459,245.102c 2.773,7.265, 7.764,10.898, 14.973,10.898l 223.552,0 c 6.933,0, 11.784-3.633, 14.558-10.898
	c 2.771-7.265, 1.595-13.757-3.535-19.478L 267.543,101.111c-3.745-3.555-7.625-5.256-11.646-5.103c-4.020,0-7.833,1.701-11.438,5.103
	L 132.994,225.625C 127.865,231.345, 126.687,237.837, 129.459,245.102z"  />
<glyph unicode="&#xf040;" d="M 429.746,224l-53.215,0 L 376.531,352 L 136.475,352 l0-128 L 82.254,224 C 54.517,224, 32,202.213, 32,175.321l0-175.488 l 104.475,0 L 136.475-64 l 240.056,0 l0,12.104 
		l0,51.729 L 480-0.167 L 480,175.321 C 480,202.213, 457.513,224, 429.746,224z M 351.375-40.609L 161.588-40.609 l0,98.805 l 189.787,0 L 351.375-40.609 z M 351.375,182.176
		L 161.588,182.176 L 161.588,327.646 l 189.787,0 L 351.375,182.176 z"  />
<glyph unicode="&#xe060;" d="M 32-8.948C 32-21.691, 42.459-32, 55.324-32l 401.379,0 C 469.568-32, 480-21.691, 480-8.948L 480,256 L 32,256 L 32-8.948 z
		 M 204.402,98.13L 204.402,226.851 l 87.418,0 L 291.82,98.13 l 58.434,0 L 248.152-2.852L 145.955,98.13L 204.402,98.13 zM 456.703,329.259L 245.596,329.259 L 217.965,352L 55.324,352 C 42.459,352, 32,341.69, 32,328.949L 32,288 l 448,0 L 480,306.153 
		C 480,318.896, 469.568,329.259, 456.703,329.259z"  />
<glyph unicode="&#xe020;" d="M 319.998,64L 191.999,64 l0,32 L 32,96 l0-74.438 c0-11.92, 9.335-21.562, 20.84-21.562l 406.294,0 c 11.52,0, 20.866,9.643, 20.866,21.562L 480,96 
	L 319.998,96 L 319.998,64 z M 288,96l-64,0 l0,64 l 64,0 L 288,96 z M 459.134,320L 320,320 L 320,384 l-32,0 l-64,0 l-32,0 l0-64 L 52.84,320 C 41.335,320, 32,310.344, 32,298.424L 32,128 l 160.002,0 l0,64 
	l 127.999,0 l0-64 L 480,128 L 480,298.424 C 480,310.344, 470.652,320, 459.134,320z M 224,320L 224,352 l 64,0 l0-32 L 224,320 z"  />
<glyph unicode="&#xf090;" d="M 223.733,68.455L 132.46,159.728L 315.005,342.274L 406.278,251zM 337.822,365.096c 25.203,25.205, 66.068,25.206, 91.274,0c 25.204-25.204, 25.204-66.069,0-91.274L 337.822,365.096zM 64,0L 109.637,136.911L 200.911,45.638 	z"  />
<glyph unicode="&#xf070;" d="M 190.156,120.969L 95.645,214.138L 32,151.4L 126.5,58.236L 185.599,0L 480,290.192L 420.927,348.439 z"  />
<glyph unicode="&#xf020;" d="M 127.96,256L 320.119,256L 320.119,224L 127.96,224zM 127.96,192L 320.119,192L 320.119,159.996L 127.96,159.996zM 127.96,128L 320.119,128L 320.119,96L 127.96,96zM 335.961,0l-224,0 c-26.468,0-48,21.532-48,48L 63.961,272 c0,26.467, 21.532,48, 48,48l 224,0 c 26.467,0, 48-21.533, 48-48l0-224 
	C 383.961,21.532, 362.428,0, 335.961,0z M 111.96,288c-8.822,0-16-7.178-16-16l0-224 c0-8.822, 7.178-16, 16-16l 224,0 
	c 8.822,0, 16,7.178, 16,16L 351.96,272 c0,8.822-7.178,16-16,16L 111.96,288 zM 416.039,96L 416.039,336.079 c0,8.822-7.178,16-16,16l-207.92,0 l0,32 l 207.92,0 c 26.469,0, 48-21.533, 48-48L 448.039,96 L 416.039,96 z"  />
<glyph unicode="&#xf030;" d="M 286.624,64.145c-2.591-23.57-10.884-45.423-23.479-64.145L 448,0 l0,64 L 286.624,64.145zM 416,160L 263.146,160 c 12.569-18.683, 20.853-40.485, 23.462-64L 416,96 L 416,160 zM 143.978,192C 82.132,192, 32,141.841, 32,80.005C 32,18.136, 82.132-32, 143.978-32C 205.867-32, 256,18.136, 256,80.005
	C 255.999,141.841, 205.867,192, 143.978,192z M 160,32l-32,0 l0,96 l 32,0 L 160,32 zM 192,256L 480,256L 480,192L 192,192zM 160,352L 448,352L 448,288L 160,288z"  />
<glyph unicode="&#x20;" horiz-adv-x="256" />
</font>
</defs>
</svg>
